<svg width="48" height="48" viewBox="0 0 48 48" fill="none" xmlns="http://www.w3.org/2000/svg">
<g clip-path="url(#clip0_9_1209)">
<path d="M9.82542 25.9996C9.82542 27.8381 10.1813 29.6586 10.8727 31.3572C11.5642 33.0558 12.5776 34.5991 13.8553 35.8992C15.1329 37.1992 16.6496 38.2304 18.3189 38.934C19.9882 39.6376 21.7773 39.9997 23.5841 39.9997C25.391 39.9997 27.1801 39.6376 28.8494 38.934C30.5186 38.2304 32.0354 37.1992 33.313 35.8992C34.5906 34.5991 35.6041 33.0558 36.2955 31.3572C36.987 29.6586 37.3428 27.8381 37.3428 25.9996C37.3428 22.2865 35.8933 18.7256 33.313 16.1C30.7327 13.4745 27.2332 11.9995 23.5841 11.9995C19.9351 11.9995 16.4355 13.4745 13.8553 16.1C11.275 18.7256 9.82542 22.2865 9.82542 25.9996Z" stroke="white" stroke-width="2.20779" stroke-linecap="round" stroke-linejoin="round"/>
<path d="M28.4987 20.9996L23.5849 25.9997" stroke="white" stroke-width="2.20779" stroke-linecap="round" stroke-linejoin="round"/>
<path d="M33.4123 15.9988L35.3778 13.9988" stroke="white" stroke-width="2.20779" stroke-linecap="round" stroke-linejoin="round"/>
<path d="M27.5169 5.99976H19.6547" stroke="white" stroke-width="2.20779" stroke-linecap="round" stroke-linejoin="round"/>
</g>
<defs>
<clipPath id="clip0_9_1209">
<rect width="47.167" height="47.9945" fill="white"/>
</clipPath>
</defs>
</svg>
