<svg width="38" height="38" viewBox="0 0 38 38" fill="none" xmlns="http://www.w3.org/2000/svg">
<path d="M33.25 5.9375H4.75C3.80517 5.9375 2.89903 6.31283 2.23093 6.98093C1.56283 7.64903 1.1875 8.55517 1.1875 9.5V27.3125C1.18812 27.5519 1.26111 27.7856 1.39687 27.9828C1.53264 28.18 1.72485 28.3316 1.94828 28.4176C2.17172 28.5036 2.41594 28.5201 2.64891 28.4649C2.88188 28.4097 3.09271 28.2853 3.25375 28.1081L12.9319 17.3256L19.5819 26.9325C19.6738 27.0642 19.7915 27.1759 19.9278 27.2608C20.0642 27.3457 20.2163 27.4021 20.375 27.4265C20.5338 27.4509 20.6958 27.4429 20.8514 27.4029C21.0069 27.3629 21.1527 27.2917 21.28 27.1938L28.405 21.7431L34.7938 28.2388C34.9583 28.4003 35.1662 28.5104 35.3923 28.5557C35.6183 28.601 35.8526 28.5795 36.0667 28.4939C36.2807 28.4083 36.4652 28.2622 36.5977 28.0735C36.7301 27.8848 36.8048 27.6617 36.8125 27.4312V9.5C36.8125 8.55517 36.4372 7.64903 35.7691 6.98093C35.101 6.31283 34.1948 5.9375 33.25 5.9375Z" fill="#67C4F0"/>
<path d="M36.4684 26.6001L29.3434 19.3564C29.14 19.1507 28.8685 19.0263 28.5798 19.0067C28.2912 18.987 28.0053 19.0733 27.7759 19.2495L19.8434 25.3414C19.603 25.5275 19.4431 25.7987 19.3967 26.0992C19.3503 26.3996 19.4209 26.7064 19.594 26.9564L22.7765 31.552C22.8856 31.7093 23.0312 31.8379 23.2007 31.9268C23.3703 32.0157 23.5588 32.0623 23.7503 32.0626H33.2503C34.1951 32.0626 35.1012 31.6873 35.7693 31.0192C36.4374 30.3511 36.8128 29.445 36.8128 28.5001V27.4314C36.8114 27.1199 36.6878 26.8213 36.4684 26.6001Z" fill="#2C2F7F"/>
<path d="M24.7238 30.1977L14.0363 14.7602C13.9344 14.6119 13.8002 14.4887 13.6437 14.3999C13.4872 14.3111 13.3126 14.259 13.133 14.2475C12.9534 14.2361 12.7736 14.2656 12.6071 14.3338C12.4406 14.4021 12.2918 14.5073 12.1719 14.6415L1.48442 26.5165C1.29077 26.736 1.18505 27.0194 1.18754 27.3121V28.4996C1.18754 29.4444 1.56288 30.3506 2.23098 31.0187C2.89907 31.6868 3.80521 32.0621 4.75004 32.0621H23.75C23.9667 32.0617 24.1791 32.0021 24.3643 31.8897C24.5495 31.7773 24.7004 31.6164 24.8007 31.4244C24.901 31.2323 24.9468 31.0165 24.9333 30.8003C24.9197 30.5841 24.8473 30.3757 24.7238 30.1977Z" fill="#2C2F7F"/>
<path d="M23.75 16.625C25.0617 16.625 26.125 15.5617 26.125 14.25C26.125 12.9383 25.0617 11.875 23.75 11.875C22.4383 11.875 21.375 12.9383 21.375 14.25C21.375 15.5617 22.4383 16.625 23.75 16.625Z" fill="white"/>
<rect x="2" y="7" width="34" height="24" rx="2" stroke="white" stroke-width="2"/>
</svg>
