<svg width="282" height="399" viewBox="0 0 282 399" fill="none" xmlns="http://www.w3.org/2000/svg">
<path d="M221.038 162.673V115.102L141.965 69.432L140.675 71.6603L139.409 69.432L63.6197 113.179V131.029L184.61 200.86L140.675 226.217L84.6135 193.847V174.307L60.3123 160.421V207.874L146.211 257.461V251.081L217.731 209.797V191.947L96.7641 122.092L140.675 96.7356L196.737 129.106V148.645L221.038 162.673Z" fill="white"/>
<path d="M140.67 0L0 81.2308V243.669L140.67 324.9L281.34 243.669V81.2308L140.67 0ZM126.831 284.953L27.6555 227.695V97.2048L126.831 39.9469V284.953ZM253.685 227.695L154.51 284.953V39.9469L253.685 97.2048V227.695Z" fill="url(#paint0_linear_9_1385)"/>
<path d="M217.725 209.797V191.947L96.7587 122.092L63.6143 113.179V131.029L184.604 200.86L217.725 209.797Z" fill="white"/>
<path d="M29.72 398.952H1.75952V383.119H12.4089V389.311H19.0237V381.219L2.11137 368.458V348.098H29.415V363.227H19.7509V357.809H12.7842V364.447L29.7434 377.184V398.952H29.72Z" fill="white"/>
<path d="M34.3438 348.099H59.0438V357.763H44.8993V367.568H58.3401V377.068H45.0401V389.313H59.3956V398.953H34.3438V348.076V348.099Z" fill="white"/>
<path d="M82.5673 389.311V383.119H93.2636V391.915L86.2266 398.952H63.2859V355.088L70.8859 348.098H93.2636V367.309H82.5673V357.785H73.9822V389.335H82.5673V389.311Z" fill="white"/>
<path d="M127.793 357.762H118.199V398.952H107.48V357.762H97.5339V348.098H127.817V357.762H127.793Z" fill="white"/>
<path d="M149.82 389.313V398.953H132.134V389.313H135.652V357.716H132.134V348.076H149.82V357.716H146.302V389.313H149.82Z" fill="white"/>
<path d="M154.396 348.098H185.1V398.975H154.396V348.098ZM165.092 389.311H174.451V357.762H165.092V389.311Z" fill="white"/>
<path d="M210.687 377.301V348.098H220.75V398.975H210.195L199.78 369.772V398.975H189.787V348.098H200.343L210.687 377.301Z" fill="white"/>
<path d="M227.321 361.633L225.914 355.136L233.913 348.146L244.539 348.122V399H233.889L233.936 361.68H227.368L227.321 361.633Z" fill="white"/>
<path d="M278.928 373.173V391.915L271.891 398.952H248.786V382.603H259.154V389.311H268.255V377.888H263.587V368.224H268.255V357.668H259.154V363.954H248.786V355.088L256.339 348.098H278.083V368.177L272.313 373.173H278.928Z" fill="white"/>
<defs>
<linearGradient id="paint0_linear_9_1385" x1="29.274" y1="69.6431" x2="245.452" y2="249.721" gradientUnits="userSpaceOnUse">
<stop offset="0.19" stop-color="#67C4F0"/>
<stop offset="0.91" stop-color="#2C2F7F"/>
</linearGradient>
</defs>
</svg>
