<svg width="282" height="325" viewBox="0 0 282 325" fill="none" xmlns="http://www.w3.org/2000/svg">
<path d="M221.038 162.673V115.102L141.965 69.432L140.675 71.6603L139.409 69.432L63.6197 113.179V131.029L184.61 200.86L140.675 226.217L84.6135 193.847V174.307L60.3123 160.421V207.874L146.211 257.461V251.081L217.731 209.797V191.947L96.7641 122.092L140.675 96.7356L196.737 129.106V148.645L221.038 162.673Z" fill="white"/>
<path d="M140.67 0L0 81.2308V243.669L140.67 324.9L281.34 243.669V81.2308L140.67 0ZM126.831 284.953L27.6555 227.695V97.2048L126.831 39.9469V284.953ZM253.685 227.695L154.51 284.953V39.9469L253.685 97.2048V227.695Z" fill="url(#section13_mark_g)"/>
<path d="M217.725 209.797V191.947L96.7587 122.092L63.6143 113.179V131.029L184.604 200.86L217.725 209.797Z" fill="white"/>
<defs>
<linearGradient id="section13_mark_g" x1="29.274" y1="69.6431" x2="245.452" y2="249.721" gradientUnits="userSpaceOnUse">
<stop offset="0.19" stop-color="#67C4F0"/>
<stop offset="0.91" stop-color="#2C2F7F"/>
</linearGradient>
</defs>
</svg>
