<svg width="247" height="68" viewBox="0 0 247 68" fill="none" xmlns="http://www.w3.org/2000/svg">
<path d="M44.385 34.0406V25.5491L30.2868 17.3945L30.0665 17.7895L29.8347 17.3945L16.3393 25.2007V28.3835L37.8924 40.8594L30.0665 45.3781L20.0726 39.6048V36.1199L15.748 33.6341V42.1139L31.052 50.9655V49.8155L43.7938 42.4508V39.268L22.2406 26.7921L30.0665 22.2734L40.0489 28.0466V31.5315L44.385 34.0406Z" fill="white"/>
<g filter="url(#filter0_d_9_1168)">
<path d="M30.0661 5L5 19.4971V48.4913L30.0661 62.9884L55.1321 48.4913V19.4971L30.0661 5ZM27.5966 55.8676L9.92742 45.6453V22.3547L27.5966 12.1324V55.8676ZM50.1931 45.6453L32.524 55.8676V12.1324L50.1931 22.3547V45.6453Z" fill="url(#paint0_linear_9_1168)"/>
</g>
<path d="M43.7923 42.4503V39.2675L22.2392 26.7916L16.3379 25.2002V28.3831L37.891 40.8589L43.7923 42.4503Z" fill="white"/>
<path d="M85.4732 50.3094H68.3516V40.6045H74.88V44.3967H78.9224V39.4377L68.5643 31.6065V19.1191H85.2717V28.3977H79.348V25.0767H75.0815V29.1494L85.462 36.9582V50.3094H85.4732Z" fill="white"/>
<path d="M88.2944 19.1191H103.412V25.0543H94.7556V31.0679H102.975V36.8909H94.834V44.3967H103.613V50.3094H88.2832V19.1191H88.2944Z" fill="white"/>
<path d="M117.812 44.3962V40.604H124.352V46.0006L120.052 50.3201H106.01V23.4045L110.657 19.1074H124.352V30.8879H117.812V25.0426H112.561V44.3962H117.812Z" fill="white"/>
<path d="M145.505 25.0426H139.626V50.2977H133.064V25.0426H126.973V19.1074H145.505V25.0426Z" fill="white"/>
<path d="M158.979 44.3962V50.3089H148.15V44.3962H150.3V25.0201H148.15V19.1074H158.979V25.0201H156.829V44.3962H158.979Z" fill="white"/>
<path d="M161.777 19.1191H180.568V50.3094H161.777V19.1191ZM168.328 44.3967H174.05V25.043H168.328V44.3967Z" fill="white"/>
<path d="M196.233 37.0138V19.1074H202.392V50.2977H195.931L189.559 32.3913V50.2977H183.445V19.1186H189.907L196.233 37.025V37.0138Z" fill="white"/>
<path d="M206.411 27.4211L205.549 23.4269L210.442 19.1299V19.1074H216.937V50.2977H210.42L210.442 27.4099H206.411V27.4211Z" fill="white"/>
<path d="M238.002 34.4899V45.9899L233.702 50.3094H219.559V40.2791H225.908V44.3967H231.484V37.3845H228.618V31.4494H231.484V24.9757H225.908V28.8352H219.559V23.3938L224.183 19.0967H237.487V31.4157L233.959 34.4787H238.002V34.4899Z" fill="white"/>
<defs>
<filter id="filter0_d_9_1168" x="0" y="0" width="60.1328" height="67.9883" filterUnits="userSpaceOnUse" color-interpolation-filters="sRGB">
<feFlood flood-opacity="0" result="BackgroundImageFix"/>
<feColorMatrix in="SourceAlpha" type="matrix" values="0 0 0 0 0 0 0 0 0 0 0 0 0 0 0 0 0 0 127 0" result="hardAlpha"/>
<feOffset/>
<feGaussianBlur stdDeviation="2.5"/>
<feComposite in2="hardAlpha" operator="out"/>
<feColorMatrix type="matrix" values="0 0 0 0 0.376471 0 0 0 0 0.701961 0 0 0 0 0.890196 0 0 0 1 0"/>
<feBlend mode="normal" in2="BackgroundImageFix" result="effect1_dropShadow_9_1168"/>
<feBlend mode="normal" in="SourceGraphic" in2="effect1_dropShadow_9_1168" result="shape"/>
</filter>
<linearGradient id="paint0_linear_9_1168" x1="10.2173" y1="17.4294" x2="48.793" y2="49.4986" gradientUnits="userSpaceOnUse">
<stop offset="0.19" stop-color="#67C4F0"/>
<stop offset="0.91" stop-color="#2C2F7F"/>
</linearGradient>
</defs>
</svg>
